<svg width="375" height="390" viewBox="0 0 375 390" fill="none" xmlns="http://www.w3.org/2000/svg">
<g clip-path="url(#clip0_9:84)">
<path d="M-35.2046 382.247L65.5333 380.945L26.4966 370.205L30.8965 360.898L55.8637 357.472L49.4684 355.989L32.2779 355.222L-35.2046 382.247Z" fill="#172B4D"/>
<path d="M20.5106 334.716L17.4408 334.767L-8.08911 325.255L20.7664 341.619L25.4733 337.733L20.5106 334.716Z" fill="#FF6163"/>
<path d="M20.5107 334.715L70.1892 325.612L45.3755 349.699L20.5107 334.715Z" fill="#172B4D"/>
<path d="M-8.08911 325.255L41.487 353.432L30.3337 355.478L3.01308 357.472L-8.08911 325.255Z" fill="white" stroke="#FF6163" stroke-width="0.633632" stroke-miterlimit="10" stroke-linejoin="round"/>
<path d="M41.4873 353.432L70.1892 325.612L49.4686 355.989L41.4873 353.432Z" fill="white" stroke="#FF6163" stroke-width="0.633632" stroke-miterlimit="10" stroke-linejoin="round"/>
<path d="M20.7666 341.619L33.6084 331.033L34.9386 332.107L30.8968 347.398L20.7666 341.619Z" fill="white" stroke="#FF6163" stroke-width="0.633632" stroke-miterlimit="10" stroke-linejoin="round"/>
<path d="M34.9383 332.107L46.5521 348.574L41.4871 353.432L30.8965 347.398L34.9383 332.107Z" fill="white" stroke="#FF6163" stroke-width="0.633632" stroke-miterlimit="10" stroke-linejoin="round"/>
<path d="M49.4686 355.989L30.334 355.477L41.4873 353.432L49.4686 355.989Z" fill="white" stroke="#FF6163" stroke-width="0.633632" stroke-miterlimit="10" stroke-linejoin="round"/>
<path d="M-16.6331 348.113L47.6265 325.612L19.6408 362.688L-16.6331 348.113Z" fill="#FFE7E8" stroke="#FF6163" stroke-width="0.633632" stroke-miterlimit="10"/>
<path d="M-56.7441 341.567L15.3433 368.415L0.864422 373.529L-35.1537 381.865L-56.7441 341.567Z" fill="white" stroke="#FF6163" stroke-width="0.633632" stroke-miterlimit="10" stroke-linejoin="round"/>
<path d="M15.3433 368.416L47.6266 325.612L26.4966 370.205L15.3433 368.416Z" fill="white" stroke="#FF6163" stroke-width="0.633632" stroke-miterlimit="10" stroke-linejoin="round"/>
<path d="M-14.7913 357.217L0.09688 340.494L2.0922 341.568L-0.0566044 362.688L-14.7913 357.217Z" fill="#FF6163"/>
<path d="M2.09217 341.567L20.971 360.949L15.3431 368.415L-0.0566406 362.688L2.09217 341.567Z" fill="white" stroke="#FF6163" stroke-width="0.633632" stroke-miterlimit="10" stroke-linejoin="round"/>
<path d="M26.4965 370.205L0.864258 373.529L15.3432 368.415L26.4965 370.205Z" fill="white" stroke="#FF6163" stroke-width="0.633632" stroke-miterlimit="10" stroke-linejoin="round"/>
<mask id="mask0_9:84" style="mask-type:alpha" maskUnits="userSpaceOnUse" x="-58" y="341" width="74" height="41">
<path d="M-56.8335 341.759L15.2078 368.309L0.941479 373.223L-35.0767 381.558L-56.8335 341.759Z" fill="white" stroke="#36B37E" stroke-width="0.633632" stroke-miterlimit="10" stroke-linejoin="round"/>
</mask>
<g mask="url(#mask0_9:84)">
<path d="M-13.4611 369.489L-21.2889 369.745L-24.9214 363.455L-32.4423 363.762L-28.9121 370.001L-36.3306 370.205L-32.9027 376.496L-25.3307 376.342L-17.6052 376.138L-13.8192 382.734L-5.7356 382.632L-1.74495 389.383H6.64565L2.55267 382.53L-1.48914 375.831L-9.67508 375.984L-13.4611 369.489Z" fill="#FFE7E8"/>
<path d="M2.75736 368.927L-5.47974 369.234L-1.4891 375.831L6.85033 375.626L15.4456 375.421L11.1991 368.671L7.05498 362.074L-1.23329 362.432L2.75736 368.927Z" fill="#FF6163"/>
<path d="M-0.977312 349.238L-9.00977 349.75L-5.17261 355.989L3.01333 355.58L-0.977312 349.238Z" fill="#FF6163"/>
<path d="M15.5991 361.665L11.3526 355.119L3.01318 355.579L7.05498 362.074L15.5991 361.665Z" fill="#FF6163"/>
</g>
<g clip-path="url(#clip1_9:84)">
<path d="M378.803 94.0771L422.808 109.042H359.67L351.575 108.159L347.651 105.706L361.044 94.0771H378.803Z" fill="#172B4D"/>
<path d="M373.014 66.601V64.2459C373.014 64.2459 367.863 54.0403 367.127 53.9422C366.391 53.8441 306.54 28.9189 306.54 28.9189L329.352 73.3229L338.379 82.9397L373.014 66.601Z" fill="white" stroke="#FF6163" stroke-width="0.598795" stroke-miterlimit="10"/>
<mask id="mask1_9:84" style="mask-type:alpha" maskUnits="userSpaceOnUse" x="306" y="28" width="68" height="56">
<path d="M373.197 66.8676V64.5125C373.197 64.5125 368.046 54.3069 367.31 54.2088C366.574 54.1107 306.723 29.1855 306.723 29.1855L329.535 73.5895L338.562 83.2063L373.197 66.8676Z" fill="white" stroke="#36B37E" stroke-width="0.598795" stroke-miterlimit="10"/>
</mask>
<g mask="url(#mask1_9:84)">
<path d="M348.043 55.0712L340.537 55.3165L337.103 49.2324L329.891 49.5759L333.276 55.5128L326.114 55.7581L329.45 61.7931L336.661 61.6459L344.118 61.4496L347.748 67.73L355.451 67.6809L359.277 74.1575H367.372L363.398 67.5828L359.522 61.1062L351.722 61.3025L348.043 55.0712Z" fill="#FFE7E8"/>
<path d="M344.462 48.9371L340.929 42.9512L333.669 43.3437L337.103 49.2315L344.462 48.9371Z" fill="#FF6163"/>
<path d="M355.745 54.7769L352.017 48.5947L344.462 48.9382L348.043 55.0713L355.745 54.7769Z" fill="#FF6163"/>
<path d="M359.768 48.2503L355.99 42.1172L348.386 42.5097L352.017 48.5938L359.768 48.2503Z" fill="#FF6163"/>
<path d="M363.643 54.531L355.745 54.7764L359.523 61.1058L367.568 60.9586L375.81 60.7623L371.738 54.2857L367.764 47.9072L359.768 48.2507L363.643 54.531Z" fill="#FF6163"/>
<path d="M322.876 49.8703L329.891 49.5759L326.604 43.6881L333.669 43.3446L330.333 37.5059L323.367 37.9474L316.547 38.389L319.687 44.0806L312.917 44.424L306.343 44.7675L309.336 50.4591L316.008 50.1647L319.148 56.0034L326.114 55.7581L322.876 49.8703Z" fill="#172B4D"/>
<path d="M312.377 56.1992L315.468 62.087L322.385 61.9398L319.147 56.0029L312.377 56.1992Z" fill="#FF6163"/>
<path d="M306.932 33.2856L309.875 38.8299L316.547 38.3883L313.457 32.7949L306.932 33.2856Z" fill="#FF6163"/>
<path d="M340.929 42.9516L348.386 42.51L344.805 36.5731L341.322 30.7344L334.11 31.2741L327.046 31.8138L330.333 37.5054L337.495 37.0638L340.929 42.9516Z" fill="#FF6163"/>
<path d="M360.013 35.5918L352.311 36.0824L355.99 42.1175L363.84 41.7249L360.013 35.5918Z" fill="#FF6163"/>
<path d="M375.908 47.5635L371.885 41.2832L363.84 41.7248L367.764 47.907L375.908 47.5635Z" fill="#FF6163"/>
<path d="M322.385 61.9392L325.672 68.0233L332.835 67.9251L329.45 61.792L322.385 61.9392Z" fill="#FF6163"/>
<path d="M359.67 65.0303L332.197 70.9181L331.51 72.7335L337.643 81.1236L359.67 65.0303Z" fill="#172B4D"/>
<path d="M383.12 72.5377L377.576 67.8274L368.991 61.3018L347.258 70.0354L346.277 75.2853L351.575 82.7923L383.12 72.5377Z" fill="white" stroke="#FF6163" stroke-width="0.598795" stroke-miterlimit="10"/>
<path d="M371.984 76.1189L388.026 70.918L378.803 94.0767L365.557 94.9108L371.984 76.1189Z" fill="white" stroke="#FF6163" stroke-width="0.598795" stroke-miterlimit="10"/>
<path d="M354.764 81.6635L351.575 82.792L350.104 103.743L351.575 108.159L365.557 94.9111L371.984 76.1191L354.764 81.6635Z" fill="white" stroke="#FF6163" stroke-width="0.598795" stroke-miterlimit="10"/>
<path d="M397.69 67.8271L425.408 82.792L354.764 81.6635L397.69 67.8271Z" fill="#FFE7E8" stroke="#FF6163" stroke-width="0.598795" stroke-miterlimit="10"/>
<path d="M351.575 82.7922V79.3576L329.352 48.79L326.408 53.4512L347.651 105.706L350.104 103.743L351.575 82.7922Z" fill="white" stroke="#FF6163" stroke-width="0.598795" stroke-miterlimit="10"/>
<path d="M329.352 48.7898L326.408 53.4509L316.499 62.6752L324.348 46.8271L329.352 48.7898Z" fill="white" stroke="#FF6163" stroke-width="0.598795" stroke-miterlimit="10"/>
<path d="M382.335 85.1477L354.764 81.6641L383.561 82.1547L382.335 85.1477Z" fill="#172B4D"/>
<path d="M357.757 80.731L348.141 72.7334L347.749 74.1072L351.575 79.3572V82.7918L357.757 80.731Z" fill="#172B4D"/>
<path d="M345.59 100.701L343.334 103.498L340.39 100.701L325.035 54.7759L326.409 53.4512L345.59 100.701Z" fill="#FFE7E8" stroke="#FF6163" stroke-width="0.598795" stroke-miterlimit="10"/>
</g>
</g>
</g>
<defs>
<clipPath id="clip0_9:84">
<rect width="375" height="390" fill="white"/>
</clipPath>
<clipPath id="clip1_9:84">
<rect width="68" height="110" fill="white" transform="translate(307)"/>
</clipPath>
</defs>
</svg>
