<svg width="1535" height="254" viewBox="0 0 1535 254" fill="none" xmlns="http://www.w3.org/2000/svg">
<path d="M1434.71 149.76L1534.5 183.69H1391.32L1372.97 181.69L1364.07 176.12L1394.44 149.76H1434.71Z" fill="#172B4D"/>
<path d="M1421.58 87.45V82.1099C1421.58 82.1099 1409.9 58.96 1408.23 58.74C1406.56 58.52 1270.84 2 1270.84 2L1322.57 102.69L1343.04 124.5L1421.58 87.45Z" fill="white" stroke="#FF6163" stroke-width="1.35786" stroke-miterlimit="10"/>
<mask id="mask0_13:143" style="mask-type:alpha" maskUnits="userSpaceOnUse" x="1269" y="1" width="154" height="125">
<path d="M1422 88.0498V82.7097C1422 82.7097 1410.32 59.5696 1408.65 59.3496C1406.98 59.1196 1271.26 2.59961 1271.26 2.59961L1322.99 103.3L1343.46 125.1L1422 88.0498Z" fill="white" stroke="#36B37E" stroke-width="1.35786" stroke-miterlimit="10"/>
</mask>
<g mask="url(#mask0_13:143)">
<path d="M1364.96 61.3L1347.94 61.8599L1340.15 48.0601L1323.8 48.8398L1331.47 62.3L1315.23 62.8599L1322.8 76.54L1339.15 76.21L1356.06 75.77L1364.29 90.01L1381.76 89.8999L1390.43 104.58H1408.79L1399.78 89.6699L1390.99 74.99L1373.3 75.4299L1364.96 61.3Z" fill="#FFE7EB"/>
<path d="M1356.84 47.3899L1348.83 33.8198L1332.36 34.71L1340.15 48.0601L1356.84 47.3899Z" fill="#FF6163"/>
<path d="M1382.42 60.6299L1373.97 46.6099L1356.84 47.3899L1364.96 61.3L1382.42 60.6299Z" fill="#FF6163"/>
<path d="M1391.55 45.8396L1382.98 31.9297L1365.74 32.8196L1373.97 46.6096L1391.55 45.8396Z" fill="#FF6163"/>
<path d="M1400.33 60.0798L1382.42 60.6299L1390.99 74.99L1409.23 74.6499L1427.92 74.21L1418.69 59.52L1409.68 45.0601L1391.55 45.8398L1400.33 60.0798Z" fill="#FF6163"/>
<path d="M1307.89 49.5098L1323.8 48.8396L1316.34 35.4897L1332.36 34.7097L1324.8 21.4697L1309 22.4697L1293.54 23.4697L1300.66 36.3796L1285.31 37.1597L1270.4 37.9397L1277.18 50.8396L1292.31 50.1797L1299.43 63.4197L1315.23 62.8596L1307.89 49.5098Z" fill="#172B4D"/>
<path d="M1284.08 63.8601L1291.09 77.2102L1306.78 76.8801L1299.43 63.4102L1284.08 63.8601Z" fill="#FF6163"/>
<path d="M1271.73 11.8999L1278.41 24.47L1293.54 23.47L1286.53 10.79L1271.73 11.8999Z" fill="#FF6163"/>
<path d="M1348.83 33.8198L1365.74 32.8198L1357.62 19.3599L1349.72 6.10986L1333.36 7.33984L1317.34 8.56006L1324.8 21.47L1341.04 20.47L1348.83 33.8198Z" fill="#FF6163"/>
<path d="M1392.1 17.1299L1374.64 18.24L1382.98 31.9299L1400.78 31.04L1392.1 17.1299Z" fill="#FF6163"/>
<path d="M1428.15 44.28L1419.02 30.04L1400.78 31.04L1409.68 45.0601L1428.15 44.28Z" fill="#FF6163"/>
<path d="M1306.78 76.8799L1314.23 90.6699L1330.47 90.45L1322.8 76.54L1306.78 76.8799Z" fill="#FF6163"/>
<path d="M1391.32 83.8896L1329.03 97.2397L1327.47 101.36L1341.37 120.38L1391.32 83.8896Z" fill="#172B4D"/>
<path d="M1444.5 100.91L1431.93 90.2297L1412.46 75.4297L1363.18 95.2397L1360.95 107.14L1372.97 124.17L1444.5 100.91Z" fill="white" stroke="#FF6163" stroke-width="1.35786" stroke-miterlimit="10"/>
<path d="M1419.25 109.03L1455.62 97.2402L1434.71 149.75L1404.67 151.65L1419.25 109.03Z" fill="white" stroke="#FF6163" stroke-width="1.35786" stroke-miterlimit="10"/>
<path d="M1380.2 121.61L1372.97 124.16L1369.63 171.67L1372.97 181.69L1404.67 151.65L1419.25 109.03L1380.2 121.61Z" fill="white" stroke="#FF6163" stroke-width="1.35786" stroke-miterlimit="10"/>
<path d="M1477.54 90.23L1540.39 124.17L1380.2 121.61L1477.54 90.23Z" fill="#FFE7EB" stroke="#FF6163" stroke-width="1.35786" stroke-miterlimit="10"/>
<path d="M1372.97 124.17V116.38L1322.57 47.0601L1315.9 57.6299L1364.07 176.12L1369.63 171.67L1372.97 124.17Z" fill="white" stroke="#FF6163" stroke-width="1.35786" stroke-miterlimit="10"/>
<path d="M1322.57 47.0601L1315.9 57.6299L1293.43 78.55L1311.23 42.6099L1322.57 47.0601Z" fill="white" stroke="#FF6163" stroke-width="1.35786" stroke-miterlimit="10"/>
<path d="M1442.72 129.51L1380.2 121.61L1445.5 122.72L1442.72 129.51Z" fill="#172B4D"/>
<path d="M1386.99 119.49L1365.18 101.36L1364.29 104.47L1372.97 116.38V124.16L1386.99 119.49Z" fill="#172B4D"/>
<path d="M1359.4 164.78L1354.28 171.12L1347.6 164.78L1312.78 60.6299L1315.9 57.6299L1359.4 164.78Z" fill="#FFE7EB" stroke="#FF6163" stroke-width="1.35786" stroke-miterlimit="10"/>
</g>
<path d="M50.0469 253.51L278.485 250.56L189.964 226.2L199.941 205.1L256.558 197.33L242.056 193.96L203.074 192.23L50.0469 253.51Z" fill="#172B4D"/>
<path d="M176.389 145.72L169.428 145.84L111.535 124.27L176.97 161.38L187.643 152.57L176.389 145.72Z" fill="#FF6163"/>
<path d="M176.39 145.72L289.043 125.08L232.774 179.7L176.39 145.72Z" fill="#172B4D"/>
<path d="M111.535 124.27L223.957 188.17L198.665 192.81L136.711 197.33L111.535 124.27Z" fill="white" stroke="#FF6163" stroke-width="1.43685" stroke-miterlimit="10" stroke-linejoin="round"/>
<path d="M223.956 188.17L289.042 125.08L242.055 193.96L223.956 188.17Z" fill="white" stroke="#FF6163" stroke-width="1.43685" stroke-miterlimit="10" stroke-linejoin="round"/>
<path d="M176.97 161.38L206.09 137.37L209.107 139.81L199.941 174.48L176.97 161.38Z" fill="white" stroke="#FF6163" stroke-width="1.43685" stroke-miterlimit="10" stroke-linejoin="round"/>
<path d="M209.105 139.81L235.441 177.15L223.956 188.17L199.94 174.48L209.105 139.81Z" fill="white" stroke="#FF6163" stroke-width="1.43685" stroke-miterlimit="10" stroke-linejoin="round"/>
<path d="M242.056 193.96L198.665 192.81L223.957 188.17L242.056 193.96Z" fill="white" stroke="#FF6163" stroke-width="1.43685" stroke-miterlimit="10" stroke-linejoin="round"/>
<path d="M92.1609 176.11L82.8795 177.73L1.20312 161.26L96.3376 196.75L108.751 182.72L92.1609 176.11Z" fill="white" stroke="#FF6163" stroke-width="1.43685" stroke-miterlimit="10" stroke-linejoin="round"/>
<path d="M92.1611 176.11L237.879 125.08L174.418 209.16L92.1611 176.11Z" fill="#FFE7EB" stroke="#FF6163" stroke-width="1.43685" stroke-miterlimit="10"/>
<path d="M1.20312 161.26L164.672 222.14L131.839 233.74L50.1626 252.64L1.20312 161.26Z" fill="white" stroke="#FF6163" stroke-width="1.43685" stroke-miterlimit="10" stroke-linejoin="round"/>
<path d="M164.672 222.14L237.879 125.08L189.964 226.2L164.672 222.14Z" fill="white" stroke="#FF6163" stroke-width="1.43685" stroke-miterlimit="10" stroke-linejoin="round"/>
<path d="M96.3369 196.75L130.098 158.83L134.623 161.26L129.75 209.16L96.3369 196.75Z" fill="#FF6163"/>
<path d="M134.623 161.26L177.434 205.21L164.672 222.14L129.75 209.16L134.623 161.26Z" fill="white" stroke="#FF6163" stroke-width="1.43685" stroke-miterlimit="10" stroke-linejoin="round"/>
<path d="M189.964 226.2L131.839 233.74L164.672 222.14L189.964 226.2Z" fill="white" stroke="#FF6163" stroke-width="1.43685" stroke-miterlimit="10" stroke-linejoin="round"/>
<mask id="mask1_13:143" style="mask-type:alpha" maskUnits="userSpaceOnUse" x="0" y="160" width="166" height="93">
<path d="M1 161.69L164.365 221.9L132.013 233.04L50.3368 251.95L1 161.69Z" fill="white" stroke="#36B37E" stroke-width="1.43685" stroke-miterlimit="10" stroke-linejoin="round"/>
</mask>
<g mask="url(#mask1_13:143)">
<path d="M99.354 224.58L81.6034 225.16L73.3661 210.9L56.3115 211.59L64.3167 225.74L47.4941 226.2L55.2673 240.47L72.438 240.12L89.9566 239.65L98.542 254.61L116.873 254.38L125.922 269.69H144.949L135.668 254.15L126.502 238.96L107.939 239.31L99.354 224.58Z" fill="#FFE7EB"/>
<path d="M90.7689 210.08L82.4157 195.94L65.2451 196.86L73.3663 210.9L90.7689 210.08Z" fill="#FFE7EB"/>
<path d="M117.454 224L108.752 209.27L90.7695 210.08L99.3548 224.58L117.454 224Z" fill="#FF6163"/>
<path d="M127.082 208.58L118.149 193.96L100.05 195.01L108.751 209.271L127.082 208.58Z" fill="#172B4D"/>
<path d="M136.132 223.3L117.453 224L126.503 238.96L145.413 238.49L164.904 238.03L155.275 222.72L145.877 207.76L127.083 208.58L136.132 223.3Z" fill="#FF6163"/>
<path d="M82.4151 195.94L100.05 195.01L91.5805 180.98L83.3432 167.18L66.2886 168.45L49.582 169.61L57.3552 183.06L74.2938 182.02L82.4151 195.94Z" fill="#FF6163"/>
<path d="M127.662 178.66L109.447 179.82L118.149 193.96L136.711 193.04L127.662 178.66Z" fill="#FF6163"/>
<path d="M165.252 206.84L155.623 191.99L136.712 193.04L145.877 207.76L165.252 206.84Z" fill="#FF6163"/>
</g>
</svg>
