<svg width="1661" height="481" viewBox="0 0 1661 481" fill="none" xmlns="http://www.w3.org/2000/svg">
<path d="M1378.01 480.76L1559.67 451.53L1660.22 435.35L1604 376.56L1339.67 419.09L1348 446.63L1378.01 480.76Z" fill="#172B4D"/>
<path d="M1541.35 0L1595.41 32.5601L1445.2 456.66L1378.01 480.76L1348 446.63L1339.67 419.09L1438.25 177.02L1462.19 154.84L1452.54 131.87L1496.89 18.6201L1541.35 0Z" fill="white"/>
<mask id="mask0_18:454" style="mask-type:alpha" maskUnits="userSpaceOnUse" x="1339" y="0" width="257" height="481">
<path d="M1541.35 0L1595.41 32.5601L1445.2 456.66L1378.01 480.76L1348 446.63L1339.67 419.09L1438.25 177.02L1462.19 154.84L1452.54 131.87L1496.89 18.6201L1541.35 0Z" fill="white"/>
</mask>
<g mask="url(#mask0_18:454)">
<path d="M1430.51 219.98L1438 198.15L1459.04 194.99L1466.19 173.9L1445.37 177.02L1452.59 156.38L1431.74 159.28L1424.11 180.22L1416.32 201.64L1394.39 204.94L1386.04 227.14L1363.29 231.03L1354.41 254.23L1377.58 250.04L1400.33 246.15L1408.39 223.54L1430.51 219.98Z" fill="#FFE7EB"/>
<path d="M1451.92 216.31L1472.92 212.93L1479.81 191.65L1459.04 194.99L1451.92 216.31Z" fill="#FF6163"/>
<path d="M1422.61 242.111L1444.47 238.361L1451.92 216.311L1430.51 219.98L1422.61 242.111Z" fill="#FF6163"/>
<path d="M1436.86 260.901L1458.69 256.93L1465.88 234.69L1444.47 238.361L1436.86 260.901Z" fill="#172B4D"/>
<path d="M1414.62 265.17L1422.61 242.11L1400.33 246.15L1391.91 269.28L1383.36 293.11L1406.46 288.48L1429.14 284.14L1436.86 260.9L1414.62 265.17Z" fill="#172B4D"/>
<path d="M1472.99 153.56L1466.18 173.9L1486.55 170.86L1479.81 191.65L1500.18 188.6L1506.73 168.07L1512.92 148.05L1493.17 150.77L1499.61 130.94L1505.93 111.82L1486.35 114.05L1479.84 133.43L1459.67 136.22L1452.58 156.38L1472.99 153.56Z" fill="#FF6163"/>
<path d="M1466.33 116.36L1446.11 118.92L1439 138.86L1459.67 136.22L1466.33 116.36Z" fill="#172B4D"/>
<path d="M1472.92 212.93L1465.88 234.69L1486.84 231.08L1507.32 227.33L1513.78 206.12L1520.06 185.4L1500.18 188.6L1493.69 209.58L1472.92 212.93Z" fill="#FF6163"/>
<path d="M1472.94 275.72L1480.07 253.03L1458.69 256.93L1451.15 279.91L1472.94 275.72Z" fill="#FF6163"/>
<path d="M1421.04 307.91L1443.47 303.38L1451.15 279.91L1429.14 284.14L1421.04 307.91Z" fill="#FF6163"/>
<path d="M1439 138.86L1418.11 141.53L1410.41 162.02L1431.74 159.28L1439 138.86Z" fill="#FF6163"/>
<path d="M1541.35 0L1378.01 480.76L1445.2 456.66L1595.41 32.5601L1541.35 0Z" fill="#FFE7EB"/>
<path d="M1541.35 0L1595.41 32.5601L1445.2 456.66L1378.01 480.76L1348 446.63L1339.67 419.09L1438.25 177.02L1462.19 154.84L1452.54 131.87L1496.89 18.6201L1541.35 0Z" stroke="#FF6163" stroke-width="1.57158" stroke-miterlimit="10" stroke-linejoin="round"/>
<path d="M1483.12 170.95L1504.05 187.06L1476.12 191.56L1483.12 170.95Z" fill="white"/>
<path d="M1540.9 186.63L1504.06 187.06L1483.13 170.95L1462.2 154.84" stroke="#FF6163" stroke-width="1.57158" stroke-miterlimit="10" stroke-linejoin="round"/>
<path d="M1504.05 187.06L1476.12 191.55L1448.01 274.69" stroke="#FF6163" stroke-width="1.57158" stroke-miterlimit="10" stroke-linejoin="round"/>
<path d="M1576.32 86.28L1529.85 33.9399L1486.17 46.01" stroke="#FF6163" stroke-width="1.57158" stroke-miterlimit="10" stroke-linejoin="round"/>
<path d="M1499.1 42.3298L1489.92 36.4697" stroke="#FF6163" stroke-width="1.57158" stroke-miterlimit="10" stroke-linejoin="round"/>
<path d="M1441.01 295.3L1404.75 259.42L1339.67 419.09L1348 446.63L1378.01 480.76L1441.01 295.3Z" fill="white" stroke="#FF6163" stroke-width="1.57158" stroke-miterlimit="10" stroke-linejoin="round"/>
<path d="M1496.07 315.54L1436.81 307.66L1432.06 286.65L1443.19 291.74L1496.07 315.54Z" fill="#172B4D"/>
</g>
<path d="M179.334 377.84L81.6961 382.13C81.3352 382.13 80.7934 382.31 80.4316 382.67L47.8715 415.2C47.5097 415.56 47.3279 416.1 47.3262 416.82L48.6956 447.86C48.693 448.94 49.5931 449.84 50.8567 449.66L134.611 440.52C135.153 440.34 135.694 440.16 136.056 439.8L154.168 412.34L154.348 412.16L181.13 381.09C182.036 379.82 180.958 377.66 179.334 377.84Z" fill="#172B4D"/>
<path d="M139.906 206.33L29.9641 214.99L1.47363 258.93L28.8833 374.49L61.329 399.69L125.084 394.68L136.677 361.5L169.468 325.5L139.906 206.33Z" fill="white" stroke="#FF6163" stroke-width="1.55764" stroke-miterlimit="10" stroke-linejoin="round"/>
<path d="M136.677 361.5L78.6016 258.21L139.906 206.33L169.468 325.5L136.677 361.5Z" fill="#FFE7EB" stroke="#FF6163" stroke-width="1.55764" stroke-miterlimit="10" stroke-linejoin="round"/>
<path d="M125.085 394.68L110.33 314.37L136.678 361.5L125.085 394.68Z" fill="white" stroke="#FF6163" stroke-width="1.55764" stroke-miterlimit="10" stroke-linejoin="round"/>
<path d="M1.47363 258.93L78.6019 258.21" stroke="#FF6163" stroke-width="1.55764" stroke-miterlimit="10" stroke-linejoin="round"/>
<path d="M92.973 246.02L71.7813 247.74L65.5664 258.27L88.6404 275.91L92.973 246.02Z" fill="#FFE7EB" stroke="#FF6163" stroke-width="1.55764" stroke-miterlimit="10" stroke-linejoin="round"/>
<mask id="mask1_18:454" style="mask-type:alpha" maskUnits="userSpaceOnUse" x="1" y="192" width="137" height="80">
<path d="M47.442 235.69L61.8683 240L71.4563 230.07L85.1608 234.38L75.5736 243.96L89.098 248.09L79.6909 257.84L65.9856 253.89L51.9193 249.94L41.7895 260.06L27.0015 256.11L16.5099 266.59L1 262.65L12.0334 251.98L22.525 241.5L37.3122 245.81L47.442 235.69Z" fill="#C5E9DA"/>
<path d="M57.5713 225.93L67.3393 216.18L81.0437 220.49L71.4566 230.07L57.5713 225.93Z" fill="#36B37E"/>
<path d="M98.3238 238.51L85.1603 234.38L94.3865 224.8L81.043 220.49L90.4493 211.09L103.432 215.4L116.054 219.72L107.369 229.11L119.992 233.07L132.433 237.2L123.93 246.41L111.307 242.46L102.081 252.04L89.0976 248.09L98.3238 238.51Z" fill="#5E78A5"/>
<path d="M115.065 255.99L106.2 265.57L93.0352 261.8L102.081 252.04L115.065 255.99Z" fill="#36B37E"/>
<path d="M137.18 214.82L128.676 224.03L116.055 219.72L124.919 210.5L137.18 214.82Z" fill="#36B37E"/>
<path d="M67.3395 216.18L53.4551 211.68L63.0422 202.11L72.8094 192.71L86.3329 197.2L99.4947 202.06L90.4502 211.09L76.9267 206.6L67.3395 216.18Z" fill="#36B37E"/>
<path d="M93.0352 261.8L83.808 271.73L69.9219 267.96L79.6908 257.84L93.0352 261.8Z" fill="#36B37E"/>
</mask>
<g mask="url(#mask1_18:454)">
<path d="M29.4444 215.51L139.002 207.23L89.2662 248L70.8356 249.45L64.4326 259.38L1.18848 259.22L29.4444 215.51Z" fill="#FF6163" stroke="#FF6163" stroke-width="1.55764" stroke-miterlimit="10" stroke-linejoin="round"/>
</g>
<path d="M365.266 392.47L369.277 384.13C369.379 383.92 369.552 383.75 369.765 383.65L430.457 356.12C430.752 355.98 431.093 356 431.373 356.16L461.694 373.85C462.465 374.29 462.306 375.45 461.443 375.68L384.669 395.68C384.554 395.71 384.436 395.72 384.318 395.71L366.068 393.9C365.377 393.83 364.965 393.1 365.266 392.47Z" fill="#172B4D"/>
<path d="M368.9 327.89L351.881 373.98L371.721 387.18L429.308 359.83L446.972 336.05L404.466 322.76L368.9 327.89Z" fill="white" stroke="#FF6163" stroke-width="1.63467" stroke-miterlimit="10" stroke-linejoin="round"/>
<path d="M388.925 346.43L390.818 350.42L429.308 359.83L431.94 356.22L446.972 336.05L404.466 322.76L388.925 346.43Z" fill="#FFE7EB" stroke="#FF6163" stroke-width="1.63467" stroke-miterlimit="10" stroke-linejoin="round"/>
<path d="M404.466 322.76L391.077 344.87L351.881 373.98" fill="white"/>
<path d="M404.466 322.76L391.077 344.87L351.881 373.98" stroke="#FF6163" stroke-width="1.63467" stroke-miterlimit="10" stroke-linejoin="round"/>
<path d="M383.952 350.06L385.776 339.42L395.92 336.78L390.818 350.42L383.952 350.06Z" fill="#172B4D" stroke="#FF6163" stroke-width="1.63467" stroke-miterlimit="10" stroke-linejoin="round"/>
<path d="M429.308 359.83L390.818 350.42" stroke="#FF6163" stroke-width="1.63467" stroke-miterlimit="10" stroke-linejoin="round"/>
<path d="M415.993 356.56L422.682 351.21L421.959 358.07L416.839 361.77L415.993 356.56Z" fill="white" stroke="#FF6163" stroke-width="1.63467" stroke-miterlimit="10" stroke-linejoin="round"/>
<path d="M422.682 351.21L421.033 327.92" stroke="#FF6163" stroke-width="1.63467" stroke-miterlimit="10" stroke-linejoin="round"/>
<mask id="mask2_18:454" style="mask-type:alpha" maskUnits="userSpaceOnUse" x="351" y="349" width="80" height="39">
<path d="M351.881 373.979L383.952 350.06L395.259 351.39L429.308 359.83L425.174 361.79L371.721 387.179L351.881 373.979Z" fill="white" stroke="#36B37E" stroke-width="1.63467" stroke-miterlimit="10" stroke-linejoin="round"/>
</mask>
<g mask="url(#mask2_18:454)">
<path d="M384.876 361.59L389.269 352.26L399.057 351.91L403.169 342.94L393.838 343.3L398.135 334.25L388.532 334.51L384.235 343.57L379.57 352.79L369.51 353.05L364.747 362.55L354.318 362.98L349.09 372.93L359.703 372.41L370.044 371.8L374.904 362.02L384.876 361.59Z" fill="#FF6163"/>
<path d="M394.663 361.23L404.363 360.7L408.387 351.55L399.057 351.91L394.663 361.23Z" fill="#FF6163"/>
<path d="M380.201 371.27L390.27 370.56L394.663 361.229L384.876 361.58L380.201 371.27Z" fill="#FFE7EB"/>
<path d="M385.595 380.25L395.479 379.62L399.97 370.03L390.27 370.56L385.595 380.25Z" fill="#FF6163"/>
<path d="M375.526 380.959L380.201 371.27L370.044 371.8L365.185 381.57L360.132 391.89L370.57 391L380.911 390.39L385.595 380.25L375.526 380.959Z" fill="#FF6163"/>
<path d="M407.368 334.16L403.169 342.94L412.499 342.58L408.387 351.55L417.718 351.19L421.645 342.31L425.476 333.71L416.514 333.89L420.432 325.47L424.166 317.13L415.389 317.23L411.471 325.65L402.237 325.74L398.135 334.25L407.368 334.16Z" fill="#FF6163"/>
<path d="M404.363 360.7L399.97 370.03L409.485 369.58L418.913 368.95L422.937 359.8L426.864 350.92L417.718 351.19L413.694 360.34L404.363 360.7Z" fill="#FF6163"/>
<path d="M400.961 388.78L405.364 379L395.479 379.62L391.077 389.41L400.961 388.78Z" fill="#FF6163"/>
</g>
</svg>
